<mxfile host="app.diagrams.net" agent="Mozilla/5.0 (X11; Ubuntu; Linux x86_64; rv:137.0) Gecko/20100101 Firefox/137.0" version="26.3.0">
  <diagram name="Page-1" id="wM7pMkZ_mw2e5Ap09Vbj">
    <mxGraphModel dx="1426" dy="798" grid="1" gridSize="10" guides="1" tooltips="1" connect="1" arrows="1" fold="1" page="1" pageScale="1" pageWidth="850" pageHeight="1100" math="0" shadow="0">
      <root>
        <mxCell id="0" />
        <mxCell id="1" parent="0" />
        <mxCell id="2" value="Drone" style="whiteSpace=wrap;strokeWidth=2;" parent="1" vertex="1">
          <mxGeometry x="2791" y="396" width="789" height="297" as="geometry" />
        </mxCell>
        <mxCell id="3" value="Back-End Server / Ground Station" style="whiteSpace=wrap;strokeWidth=2;" parent="1" vertex="1">
          <mxGeometry x="8" y="178" width="2672" height="515" as="geometry" />
        </mxCell>
        <mxCell id="4" value="User Interface" style="whiteSpace=wrap;strokeWidth=2;" parent="1" vertex="1">
          <mxGeometry x="2700" y="8" width="989" height="298" as="geometry" />
        </mxCell>
        <mxCell id="5" value="User Interface" style="whiteSpace=wrap;strokeWidth=2;" parent="1" vertex="1">
          <mxGeometry x="3093" y="33" width="161" height="54" as="geometry" />
        </mxCell>
        <mxCell id="6" value="Back-End Server / Ground Station" style="whiteSpace=wrap;strokeWidth=2;" parent="1" vertex="1">
          <mxGeometry x="1517" y="203" width="260" height="78" as="geometry" />
        </mxCell>
        <mxCell id="7" value="Drone" style="whiteSpace=wrap;strokeWidth=2;" parent="1" vertex="1">
          <mxGeometry x="3091" y="433" width="104" height="54" as="geometry" />
        </mxCell>
        <mxCell id="8" value="Define Search Area" style="whiteSpace=wrap;strokeWidth=2;" parent="1" vertex="1">
          <mxGeometry x="3183" y="215" width="200" height="54" as="geometry" />
        </mxCell>
        <mxCell id="9" value="Display Mission Status" style="whiteSpace=wrap;strokeWidth=2;" parent="1" vertex="1">
          <mxGeometry x="3433" y="215" width="221" height="54" as="geometry" />
        </mxCell>
        <mxCell id="10" value="Receive Defined Area" style="whiteSpace=wrap;strokeWidth=2;" parent="1" vertex="1">
          <mxGeometry x="43" y="433" width="216" height="54" as="geometry" />
        </mxCell>
        <mxCell id="11" value="Generate Flight Path" style="whiteSpace=wrap;strokeWidth=2;" parent="1" vertex="1">
          <mxGeometry x="309" y="433" width="208" height="54" as="geometry" />
        </mxCell>
        <mxCell id="12" value="Send Flight Commands" style="whiteSpace=wrap;strokeWidth=2;" parent="1" vertex="1">
          <mxGeometry x="566" y="433" width="227" height="54" as="geometry" />
        </mxCell>
        <mxCell id="13" value="Receive Telemetry &amp; Images" style="whiteSpace=wrap;strokeWidth=2;" parent="1" vertex="1">
          <mxGeometry x="844" y="421" width="260" height="78" as="geometry" />
        </mxCell>
        <mxCell id="14" value="Run Detection &amp; Mapping" style="whiteSpace=wrap;strokeWidth=2;" parent="1" vertex="1">
          <mxGeometry x="1154" y="433" width="242" height="54" as="geometry" />
        </mxCell>
        <mxCell id="15" value="Send Processed Results" style="whiteSpace=wrap;strokeWidth=2;" parent="1" vertex="1">
          <mxGeometry x="1446" y="433" width="235" height="54" as="geometry" />
        </mxCell>
        <mxCell id="16" value="Receive Flight Plan" style="whiteSpace=wrap;strokeWidth=2;" parent="1" vertex="1">
          <mxGeometry x="2826" y="602" width="198" height="54" as="geometry" />
        </mxCell>
        <mxCell id="17" value="Execute Flight" style="whiteSpace=wrap;strokeWidth=2;" parent="1" vertex="1">
          <mxGeometry x="3074" y="602" width="161" height="54" as="geometry" />
        </mxCell>
        <mxCell id="18" value="Capture Images &amp; Telemetry" style="whiteSpace=wrap;strokeWidth=2;" parent="1" vertex="1">
          <mxGeometry x="3285" y="590" width="260" height="78" as="geometry" />
        </mxCell>
        <mxCell id="19" value="" style="whiteSpace=wrap;strokeWidth=2;" parent="1" vertex="1">
          <mxGeometry x="1731" y="460" as="geometry" />
        </mxCell>
        <mxCell id="20" value="" style="whiteSpace=wrap;strokeWidth=2;" parent="1" vertex="1">
          <mxGeometry x="1768" y="629" as="geometry" />
        </mxCell>
        <mxCell id="21" value="Define Search Area" style="curved=1;startArrow=none;endArrow=block;exitX=0;exitY=0.78;entryX=1;entryY=0.4;" parent="1" source="5" target="6" edge="1">
          <mxGeometry relative="1" as="geometry">
            <Array as="points">
              <mxPoint x="2792" y="132" />
              <mxPoint x="2792" y="178" />
            </Array>
          </mxGeometry>
        </mxCell>
        <mxCell id="22" value="Display Mission Status &amp; Visualization" style="curved=1;startArrow=none;endArrow=block;exitX=0.04;exitY=1;entryX=1;entryY=0.41;" parent="1" source="5" target="6" edge="1">
          <mxGeometry relative="1" as="geometry">
            <Array as="points">
              <mxPoint x="2974" y="132" />
              <mxPoint x="2974" y="178" />
            </Array>
          </mxGeometry>
        </mxCell>
        <mxCell id="23" value="Generate Optimized Flight Path" style="curved=1;startArrow=none;endArrow=block;exitX=1;exitY=0.84;entryX=0;entryY=0.45;" parent="1" source="6" target="7" edge="1">
          <mxGeometry relative="1" as="geometry">
            <Array as="points">
              <mxPoint x="1954" y="306" />
              <mxPoint x="1954" y="396" />
            </Array>
          </mxGeometry>
        </mxCell>
        <mxCell id="24" value="Send Flight Commands" style="curved=1;startArrow=none;endArrow=block;exitX=1;exitY=0.7;entryX=0;entryY=0.44;" parent="1" source="6" target="7" edge="1">
          <mxGeometry relative="1" as="geometry">
            <Array as="points">
              <mxPoint x="2155" y="306" />
              <mxPoint x="2155" y="396" />
            </Array>
          </mxGeometry>
        </mxCell>
        <mxCell id="25" value="Execute Autonomous Flight &amp; Capture Images" style="curved=1;startArrow=none;endArrow=block;exitX=0;exitY=0.43;entryX=1;entryY=0.64;" parent="1" source="7" target="6" edge="1">
          <mxGeometry relative="1" as="geometry">
            <Array as="points">
              <mxPoint x="2361" y="396" />
              <mxPoint x="2361" y="306" />
            </Array>
          </mxGeometry>
        </mxCell>
        <mxCell id="26" value="Send Telemetry &amp; Image Data" style="curved=1;startArrow=none;endArrow=block;exitX=0;exitY=0.4;entryX=1;entryY=0.61;" parent="1" source="7" target="6" edge="1">
          <mxGeometry relative="1" as="geometry">
            <Array as="points">
              <mxPoint x="2570" y="396" />
              <mxPoint x="2570" y="306" />
            </Array>
          </mxGeometry>
        </mxCell>
        <mxCell id="27" value="" style="curved=1;startArrow=none;endArrow=none;exitX=0.7;exitY=0.99;entryX=Infinity;entryY=Infinity;" parent="1" source="6" target="19" edge="1">
          <mxGeometry relative="1" as="geometry">
            <Array as="points">
              <mxPoint x="1731" y="306" />
            </Array>
          </mxGeometry>
        </mxCell>
        <mxCell id="28" value="Run Person Detection &amp; Location Mapping" style="curved=1;startArrow=none;endArrow=none;exitX=Infinity;exitY=Infinity;entryX=Infinity;entryY=-Infinity;" parent="1" source="19" target="20" edge="1">
          <mxGeometry relative="1" as="geometry">
            <Array as="points">
              <mxPoint x="1731" y="544" />
            </Array>
          </mxGeometry>
        </mxCell>
        <mxCell id="29" value="" style="curved=1;startArrow=none;endArrow=block;exitX=Infinity;exitY=-Infinity;entryX=0.95;entryY=0.99;" parent="1" source="20" target="6" edge="1">
          <mxGeometry relative="1" as="geometry">
            <Array as="points">
              <mxPoint x="1839" y="544" />
              <mxPoint x="1839" y="306" />
            </Array>
          </mxGeometry>
        </mxCell>
        <mxCell id="30" value="Send Processed Results" style="curved=1;startArrow=none;endArrow=block;exitX=1;exitY=0.42;entryX=0.5;entryY=1;" parent="1" source="6" target="5" edge="1">
          <mxGeometry relative="1" as="geometry">
            <Array as="points">
              <mxPoint x="3173" y="178" />
            </Array>
          </mxGeometry>
        </mxCell>
        <mxCell id="31" value="" style="curved=1;startArrow=none;endArrow=block;exitX=0.75;exitY=1;entryX=0.5;entryY=-0.01;" parent="1" source="5" target="8" edge="1">
          <mxGeometry relative="1" as="geometry">
            <Array as="points">
              <mxPoint x="3283" y="132" />
            </Array>
          </mxGeometry>
        </mxCell>
        <mxCell id="32" value="" style="curved=1;startArrow=none;endArrow=block;exitX=1;exitY=0.79;entryX=0.5;entryY=-0.01;" parent="1" source="5" target="9" edge="1">
          <mxGeometry relative="1" as="geometry">
            <Array as="points">
              <mxPoint x="3543" y="132" />
            </Array>
          </mxGeometry>
        </mxCell>
        <mxCell id="33" value="" style="curved=1;startArrow=none;endArrow=block;exitX=0;exitY=0.57;entryX=0.5;entryY=0;" parent="1" source="6" target="10" edge="1">
          <mxGeometry relative="1" as="geometry">
            <Array as="points">
              <mxPoint x="151" y="306" />
            </Array>
          </mxGeometry>
        </mxCell>
        <mxCell id="34" value="" style="curved=1;startArrow=none;endArrow=block;exitX=0;exitY=0.58;entryX=0.5;entryY=0;" parent="1" source="6" target="11" edge="1">
          <mxGeometry relative="1" as="geometry">
            <Array as="points">
              <mxPoint x="412" y="306" />
            </Array>
          </mxGeometry>
        </mxCell>
        <mxCell id="35" value="" style="curved=1;startArrow=none;endArrow=block;exitX=0;exitY=0.61;entryX=0.5;entryY=0;" parent="1" source="6" target="12" edge="1">
          <mxGeometry relative="1" as="geometry">
            <Array as="points">
              <mxPoint x="680" y="306" />
            </Array>
          </mxGeometry>
        </mxCell>
        <mxCell id="36" value="" style="curved=1;startArrow=none;endArrow=block;exitX=0;exitY=0.65;entryX=0.5;entryY=0;" parent="1" source="6" target="13" edge="1">
          <mxGeometry relative="1" as="geometry">
            <Array as="points">
              <mxPoint x="974" y="306" />
            </Array>
          </mxGeometry>
        </mxCell>
        <mxCell id="37" value="" style="curved=1;startArrow=none;endArrow=block;exitX=0;exitY=0.78;entryX=0.5;entryY=0;" parent="1" source="6" target="14" edge="1">
          <mxGeometry relative="1" as="geometry">
            <Array as="points">
              <mxPoint x="1275" y="306" />
            </Array>
          </mxGeometry>
        </mxCell>
        <mxCell id="38" value="" style="curved=1;startArrow=none;endArrow=block;exitX=0.3;exitY=0.99;entryX=0.5;entryY=0;" parent="1" source="6" target="15" edge="1">
          <mxGeometry relative="1" as="geometry">
            <Array as="points">
              <mxPoint x="1563" y="306" />
            </Array>
          </mxGeometry>
        </mxCell>
        <mxCell id="39" value="" style="curved=1;startArrow=none;endArrow=block;exitX=0;exitY=0.87;entryX=0.5;entryY=0;" parent="1" source="7" target="16" edge="1">
          <mxGeometry relative="1" as="geometry">
            <Array as="points">
              <mxPoint x="2925" y="544" />
            </Array>
          </mxGeometry>
        </mxCell>
        <mxCell id="40" value="" style="curved=1;startArrow=none;endArrow=block;exitX=0.54;exitY=1;entryX=0.5;entryY=0;" parent="1" source="7" target="17" edge="1">
          <mxGeometry relative="1" as="geometry">
            <Array as="points">
              <mxPoint x="3154" y="544" />
            </Array>
          </mxGeometry>
        </mxCell>
        <mxCell id="41" value="" style="curved=1;startArrow=none;endArrow=block;exitX=1;exitY=0.8;entryX=0.5;entryY=0;" parent="1" source="7" target="18" edge="1">
          <mxGeometry relative="1" as="geometry">
            <Array as="points">
              <mxPoint x="3415" y="544" />
            </Array>
          </mxGeometry>
        </mxCell>
      </root>
    </mxGraphModel>
  </diagram>
</mxfile>
